<?xml version="1.0" encoding="UTF-8" ?>
<!DOCTYPE svg PUBLIC "-//W3C//DTD SVG 1.1//EN" "http://www.w3.org/Graphics/SVG/1.1/DTD/svg11.dtd">
<svg width="246pt" height="277pt" viewBox="0 0 246 277" version="1.1" xmlns="http://www.w3.org/2000/svg">
<path fill="#ffffff" d=" M 0.00 0.00 L 246.00 0.00 L 246.00 277.00 L 0.00 277.00 L 0.00 0.00 Z" />
<path fill="#f69b4f" d=" M 76.42 47.38 C 79.36 26.18 99.61 9.15 121.00 9.94 C 141.38 10.04 160.02 25.98 163.55 46.00 C 162.92 45.86 162.29 45.73 161.65 45.61 C 159.19 30.82 147.48 18.32 133.38 13.71 C 121.22 9.98 107.32 11.53 96.72 18.76 C 90.90 21.77 87.05 27.27 83.68 32.70 C 81.18 36.85 79.57 41.50 78.91 46.30 C 78.29 46.57 77.05 47.11 76.42 47.38 Z" />
<path fill="#f9c0c7" d=" M 96.72 18.76 C 107.32 11.53 121.22 9.98 133.38 13.71 C 147.48 18.32 159.19 30.82 161.65 45.61 C 152.31 44.23 142.23 44.28 133.63 48.65 C 129.52 50.49 126.13 53.46 122.63 56.21 C 117.61 51.95 112.03 48.14 105.64 46.30 C 100.28 44.48 94.55 44.79 88.97 44.84 C 85.57 44.88 82.17 45.32 78.91 46.30 C 79.57 41.50 81.18 36.85 83.68 32.70 C 87.05 27.27 90.90 21.77 96.72 18.76 Z" />
<path fill="#bedb71" d=" M 78.91 46.30 C 82.17 45.32 85.57 44.88 88.97 44.84 C 94.55 44.79 100.28 44.48 105.64 46.30 C 112.03 48.14 117.61 51.95 122.63 56.21 C 118.74 58.92 116.39 63.13 114.34 67.28 C 108.81 63.96 101.59 62.69 95.54 65.31 C 89.26 67.59 84.70 73.21 82.36 79.32 C 80.49 87.54 83.37 96.61 90.25 101.68 C 84.59 104.33 80.03 108.76 77.00 114.21 C 75.22 113.71 73.44 113.23 71.68 112.66 C 72.87 110.86 74.28 109.21 75.43 107.40 C 77.17 101.96 75.83 95.40 71.22 91.75 C 69.16 89.74 66.06 90.20 63.48 89.40 C 61.13 90.26 58.31 89.70 56.28 91.35 C 53.20 93.73 50.95 97.36 50.74 101.30 L 49.73 100.83 C 47.86 94.34 47.30 87.40 48.70 80.76 C 49.14 78.99 49.73 77.26 50.27 75.52 C 52.15 69.02 56.16 63.51 60.27 58.25 C 65.32 54.15 70.19 49.64 76.42 47.38 C 77.05 47.11 78.29 46.57 78.91 46.30 Z" />
<path fill="#4fc5f2" d=" M 133.63 48.65 C 142.23 44.28 152.31 44.23 161.65 45.61 C 162.29 45.73 162.92 45.86 163.55 46.00 C 179.98 50.02 193.26 64.13 196.09 80.82 C 196.16 81.20 196.29 81.94 196.35 82.31 C 197.17 87.26 196.90 92.30 196.04 97.21 C 195.60 99.20 194.99 101.14 194.50 103.11 C 192.55 99.02 189.73 94.70 184.96 93.71 C 182.18 92.52 179.26 93.43 176.50 94.15 C 172.78 95.62 170.56 99.06 169.05 102.59 C 169.02 104.89 168.99 107.19 168.91 109.49 C 165.67 104.80 161.99 100.27 156.81 97.63 C 159.45 95.42 161.38 92.56 162.82 89.46 C 164.35 85.24 164.27 80.77 162.84 76.53 C 160.26 71.40 155.73 66.09 149.61 65.76 C 146.44 63.92 142.81 65.55 139.53 66.15 C 132.90 69.03 127.81 75.59 127.93 82.99 C 127.53 88.78 130.84 94.08 135.18 97.63 C 130.58 100.22 126.40 103.54 123.66 108.13 C 121.60 105.36 118.58 103.64 115.61 102.01 C 118.09 98.28 121.94 95.30 122.77 90.65 C 125.49 82.08 121.72 72.26 114.34 67.28 C 116.39 63.13 118.74 58.92 122.63 56.21 C 126.13 53.46 129.52 50.49 133.63 48.65 Z" />
<path fill="#f9c0c7" d=" M 36.17 88.22 C 39.74 84.84 44.25 82.72 48.70 80.76 C 47.30 87.40 47.86 94.34 49.73 100.83 C 49.73 104.48 51.06 107.84 53.04 110.85 C 49.47 111.94 45.73 112.16 42.02 111.99 C 37.31 111.73 32.93 113.95 28.26 114.00 C 26.67 112.82 26.95 110.72 26.93 108.99 C 27.46 101.29 30.56 93.63 36.17 88.22 Z" />
<path fill="#f48120" d=" M 196.09 80.82 C 203.74 82.69 210.51 87.87 214.23 94.82 C 218.20 101.28 218.91 109.32 217.49 116.65 C 209.22 114.55 200.74 113.30 192.20 113.52 C 194.32 110.42 194.47 106.73 194.50 103.11 C 194.99 101.14 195.60 99.20 196.04 97.21 C 201.74 96.91 207.90 98.17 213.19 95.44 C 209.32 89.41 203.77 83.43 196.35 82.31 C 196.29 81.94 196.16 81.20 196.09 80.82 Z" />
<path fill="#f69b4f" d=" M 196.35 82.31 C 203.77 83.43 209.32 89.41 213.19 95.44 C 207.90 98.17 201.74 96.91 196.04 97.21 C 196.90 92.30 197.17 87.26 196.35 82.31 Z" />
<path fill="#6fc2f4" d=" M 15.39 127.25 C 25.45 123.10 36.19 120.72 47.01 119.96 C 53.70 120.12 60.40 119.83 67.09 120.11 C 71.98 121.53 77.20 121.73 82.11 123.25 C 86.13 124.13 90.06 125.32 93.70 127.28 C 100.74 129.53 106.47 134.40 112.32 138.74 C 115.21 141.72 117.29 145.39 119.96 148.57 C 119.79 151.73 120.08 154.87 120.90 157.93 C 121.20 163.61 120.89 169.32 120.97 175.01 C 120.89 176.38 121.34 177.69 121.90 178.93 C 122.11 183.95 121.95 188.98 122.01 194.00 L 122.99 194.00 C 123.41 189.38 122.04 184.45 123.91 180.07 C 124.54 172.05 122.97 163.85 124.94 155.98 C 125.14 153.51 124.98 151.04 125.04 148.57 C 128.48 144.52 131.09 139.60 135.67 136.70 C 141.67 131.37 149.01 127.87 156.53 125.20 C 157.04 125.11 158.06 124.94 158.57 124.86 L 159.43 124.22 C 162.98 123.33 166.46 121.97 170.17 121.92 C 170.59 121.70 171.43 121.26 171.84 121.04 C 173.91 121.05 176.06 121.13 177.93 120.09 C 184.61 119.86 191.29 120.11 197.97 119.96 C 201.74 119.75 205.28 121.45 209.07 121.13 C 210.64 121.86 212.36 122.04 214.06 122.20 C 216.56 122.88 219.06 123.56 221.57 124.21 L 222.43 124.86 C 222.94 124.95 223.95 125.11 224.46 125.20 C 227.07 126.19 229.65 127.24 232.20 128.40 C 230.30 132.97 227.54 137.14 225.88 141.81 C 224.10 146.57 221.24 150.83 219.37 155.56 C 217.30 161.27 213.99 166.41 211.63 171.99 C 208.72 172.02 205.82 172.05 202.92 171.90 C 198.53 170.13 193.56 171.21 188.94 171.09 C 185.42 172.44 181.48 171.31 178.08 172.90 C 176.67 172.95 175.26 172.98 173.86 173.01 C 173.43 173.24 172.59 173.70 172.16 173.92 C 167.15 174.27 162.35 175.98 157.52 177.26 C 144.29 182.04 131.72 189.30 122.48 200.10 C 113.26 189.30 100.76 181.91 87.47 177.26 C 80.70 175.61 74.01 172.98 66.97 172.88 C 64.47 171.62 61.62 172.03 58.92 171.90 C 54.17 169.97 48.84 171.46 43.85 170.97 C 43.40 171.25 42.51 171.79 42.06 172.06 C 39.49 171.82 36.89 171.81 34.31 172.07 C 30.41 167.93 29.30 162.19 26.68 157.31 C 21.77 148.13 18.21 138.32 13.02 129.28 C 13.81 128.60 14.60 127.92 15.39 127.25 Z" />
<path fill="#01adee" d=" M 45.75 228.84 C 50.45 224.76 57.08 224.89 62.92 225.23 C 66.23 225.59 70.07 226.86 71.58 230.10 C 73.50 233.83 72.52 238.60 69.72 241.62 C 67.12 244.46 63.52 246.05 60.15 247.76 C 63.01 254.23 65.78 261.37 72.31 265.01 C 69.56 267.94 63.97 269.43 61.36 265.54 C 57.52 260.09 55.85 253.49 53.01 247.51 C 52.48 247.80 51.44 248.37 50.91 248.66 C 50.31 254.68 47.74 260.49 48.63 266.65 C 46.32 267.30 43.78 268.24 41.40 267.41 C 39.89 266.59 40.63 264.43 40.78 263.09 C 42.99 252.67 46.35 242.44 47.51 231.83 C 46.91 230.84 46.32 229.84 45.75 228.84 Z" />
<path fill="#4d4d4d" d=" M 184.39 226.24 C 187.40 225.10 190.64 224.96 193.81 225.33 C 193.09 230.29 189.47 236.29 183.65 235.40 C 183.55 232.32 184.18 229.30 184.39 226.24 Z" />
<path fill="#01adee" d=" M 155.14 228.48 C 157.54 227.51 162.82 225.75 162.90 229.93 C 162.29 239.24 158.49 248.01 157.13 257.22 C 156.71 258.81 157.33 260.37 157.75 261.89 C 159.72 260.10 161.62 258.19 163.91 256.80 C 163.55 261.11 160.37 264.68 156.62 266.53 C 154.88 267.08 152.54 267.35 151.26 265.74 C 149.14 263.51 149.89 260.09 149.71 257.31 C 146.80 261.89 142.84 267.35 136.86 267.46 C 133.24 266.97 132.26 263.09 132.04 260.03 C 130.11 263.68 126.89 266.41 122.98 267.71 C 118.04 266.82 118.16 261.34 118.49 257.44 C 116.26 261.11 113.49 264.72 109.66 266.82 C 106.45 268.63 101.77 266.75 101.36 262.91 C 100.26 255.25 103.56 247.32 108.96 241.93 C 112.45 238.05 118.25 236.89 122.98 239.08 C 125.43 237.60 128.30 238.06 130.87 238.92 C 128.04 246.15 125.84 253.83 125.76 261.65 C 128.61 261.15 130.25 258.47 132.36 256.75 C 134.06 250.07 137.27 243.04 143.55 239.55 C 146.75 237.60 150.83 237.83 154.15 239.35 C 155.05 235.80 155.49 232.14 155.14 228.48 Z" />
<path fill="#ffffff" d=" M 54.38 229.72 C 57.66 229.22 62.01 228.60 64.10 231.88 C 66.09 236.14 64.20 241.82 59.93 243.89 C 57.53 244.97 54.83 244.71 52.28 244.64 C 52.68 239.61 55.26 234.84 54.38 229.72 Z" />
<path fill="#4d4d4d" d=" M 198.38 232.03 C 201.02 231.13 204.84 229.30 206.50 232.66 C 205.91 235.40 205.50 238.18 205.22 240.97 C 207.83 241.00 210.43 240.75 213.03 240.50 C 212.59 242.07 211.63 243.40 210.62 244.64 C 208.65 244.59 206.69 244.55 204.73 244.52 C 203.06 249.86 200.84 255.58 201.85 261.24 C 205.30 262.78 206.98 257.97 209.71 256.70 C 209.67 260.84 206.63 264.17 203.29 266.20 C 200.16 267.95 195.14 266.84 194.50 262.87 C 193.21 252.36 199.88 242.59 198.38 232.03 Z" />
<path fill="#01adee" d=" M 78.11 248.12 C 81.49 243.12 86.44 237.91 92.95 238.05 C 95.36 237.90 98.30 237.95 99.61 240.39 C 100.39 242.78 100.12 245.66 98.39 247.59 C 94.81 252.02 89.19 253.79 84.12 255.87 C 83.81 256.47 83.19 257.67 82.88 258.28 C 83.44 259.62 83.99 260.98 84.54 262.33 C 89.65 265.04 94.71 261.66 98.83 258.80 C 98.85 260.89 98.25 263.12 96.33 264.25 C 91.63 267.40 85.21 268.71 79.94 266.23 C 76.04 264.73 75.40 259.65 75.79 256.02 C 76.33 253.70 76.19 250.57 78.43 249.15 C 78.35 248.89 78.19 248.38 78.11 248.12 Z" />
<path fill="#4d4d4d" d=" M 180.64 239.85 C 183.31 238.70 186.33 238.13 188.92 239.79 C 188.92 247.30 184.42 254.16 185.68 261.80 C 188.28 260.78 190.07 258.59 192.15 256.85 C 192.00 262.13 187.66 265.94 182.98 267.60 C 181.28 266.90 179.18 266.33 178.51 264.39 C 176.58 256.06 182.70 248.10 180.64 239.85 Z" />
<path fill="#ffffff" d=" M 89.38 241.39 C 90.47 241.39 91.55 241.39 92.63 241.38 C 92.93 242.59 93.99 243.90 93.25 245.16 C 91.49 249.05 87.35 250.79 84.04 253.09 C 84.57 248.74 86.18 244.47 89.38 241.39 Z" />
<path fill="#ffffff" d=" M 115.46 242.31 C 117.82 240.56 120.44 242.72 121.69 244.74 C 118.95 250.64 116.27 256.89 111.51 261.46 C 109.25 262.84 108.25 259.74 108.70 258.00 C 109.32 252.35 110.90 246.10 115.46 242.31 Z" />
<path fill="#ffffff" d=" M 144.56 244.48 C 146.32 241.37 151.34 241.48 152.62 244.97 C 151.93 248.62 149.60 251.70 147.88 254.94 C 146.03 257.76 144.24 261.38 140.56 262.02 C 138.67 256.05 141.12 249.43 144.56 244.48 Z" />
</svg>
